# xmcd
#
# Track frame offsets:
#	150
#	18082
#	36555
#	48483
#	60279
#	74242
#	88633
#	103582
#	117892
#	130818
#
# Disc length: 1922 seconds
#
# Revision: 1
# Processed by: cddbd v1.5.2PL0 Copyright (c) Steve Scherf et al.
# Submitted via: audiograbber 1.83.01
#
DISCID=8707800a
DTITLE=Travis List - Travis List
DYEAR=2011
DGENRE=Country
TTITLE0=Things Worth Dying For
TTITLE1=Hard to not like her
TTITLE2=Have mercy on the thirsty
TTITLE3=Me and Hank
TTITLE4=Trouble Inlaws
TTITLE5=Just add whiskey
TTITLE6=Down in the bottom
TTITLE7=She's alright
TTITLE8=Sneek up on love
TTITLE9=Haven't you heard
EXTD=
EXTT0=
EXTT1=
EXTT2=
EXTT3=
EXTT4=
EXTT5=
EXTT6=
EXTT7=
EXTT8=
EXTT9=
PLAYORDER=
